<svg xmlns="http://www.w3.org/2000/svg" version="1.1" xmlns:xlink="http://www.w3.org/1999/xlink" width="1500" height="106" viewBox="0 0 1500 106"><svg xml:space="preserve" width="1500" height="106" data-version="2" data-id="lg_FgnKc22hMcSp5qxR4j" viewBox="0 0 572 106" x="0" y="0"><rect width="100%" height="100%" fill="transparent"></rect><path fill="#0056b3" d="M157.38 50.23V39.89h3.15V11.61h-3.15V1.21h25.58q10.52 0 16.73 5.77 6.2 5.76 6.2 18.74 0 12.98-6.2 18.74-6.21 5.77-16.73 5.77zm20.79-10.34h3.66q2.14 0 3.21-1.13 1.07-1.13 1.07-3.53V16.21q0-4.67-4.28-4.67h-3.66z"></path><rect width="48.51" height="49.02" x="-24.25" y="-24.51" fill="none" rx="0" ry="0" transform="translate(182.13 26.22)"></rect><path fill="#0056b3" d="M208.03 50.23V39.89h3.15V11.61h-3.15V1.21h25.58q10.52 0 16.73 5.77 6.2 5.76 6.2 18.74 0 12.98-6.2 18.74-6.21 5.77-16.73 5.77zm20.79-10.34h3.66q2.14 0 3.21-1.13 1.07-1.13 1.07-3.53V16.21q0-4.67-4.28-4.67h-3.66z"></path><rect width="48.51" height="49.02" x="-24.25" y="-24.51" fill="none" rx="0" ry="0" transform="translate(232.78 26.22)"></rect><path fill="#0056b3" d="M176.91 103.79q-6.05 0-11.43-1.04-5.39-1.04-8.29-2.36V87.91h13.86q0 1.96.88 2.84.89.88 3.22.88 1.95 0 2.8-.6.85-.6.85-1.79 0-1.01-.82-1.74-.82-.72-2.83-1.48l-5.42-1.89q-6.99-2.64-10.05-6.23-3.05-3.59-3.05-9.71 0-7.43 4.88-11.3 4.88-3.88 16.28-3.88 5.48 0 10.3 1.1 4.82 1.11 7.78 2.93v11.28h-12.6q0-3.15-3.9-3.15-1.89 0-2.68.47-.79.48-.79 1.67 0 1.07.92 1.7.91.63 2.99 1.33l5.48 1.89q6.68 2.26 9.73 5.89 3.06 3.62 3.06 9.48 0 8-5.39 12.09-5.38 4.1-15.78 4.1"></path><rect width="41.45" height="50.78" x="-20.73" y="-25.39" fill="none" rx="0" ry="0" transform="translate(177.85 78.9)"></rect><path fill="#0056b3" d="M223.53 103.79q-11.53 0-17.8-6.05-6.26-6.05-6.26-19.34t6.26-19.34q6.27-6.05 17.8-6.05 11.53 0 17.8 6.05 6.27 6.05 6.27 19.34t-6.27 19.34q-6.27 6.05-17.8 6.05m0-11.21q2.14 0 3.21-1.14 1.08-1.13 1.08-3.53V68.89q0-2.4-1.08-3.53-1.07-1.13-3.21-1.13-2.14 0-3.21 1.13-1.07 1.13-1.07 3.53v19.02q0 2.46 1.07 3.56 1.07 1.11 3.21 1.11"></path><rect width="48.13" height="50.78" x="-24.07" y="-25.39" fill="none" rx="0" ry="0" transform="translate(224.03 78.9)"></rect><path fill="#0056b3" d="M288.74 102.91h-39V92.58h3.15V64.23h-3.15V53.89h26.59v10.34h-5.8v28.35h5.67v-5.8h12.54z"></path><rect width="39" height="49.02" x="-19.5" y="-24.51" fill="none" rx="0" ry="0" transform="translate(269.74 78.9)"></rect><path fill="#0056b3" d="M314.44 103.79q-9.89 0-15.28-4.35-5.38-4.34-5.38-14.11v-21.1h-3.15V53.89h23.31v10.34h-2.52v24.31q0 2.08.91 3.06t2.74.98q1.83 0 2.74-.98.91-.98.91-3.06V64.23h-2.52V53.89h21.61v10.34h-3.15v21.1q0 9.77-5.23 14.11-5.22 4.35-14.99 4.35"></path><rect width="47.18" height="49.9" x="-23.59" y="-24.95" fill="none" rx="0" ry="0" transform="translate(314.72 79.34)"></rect><path fill="#0056b3" d="M387.08 53.89v15.25h-10.84v-4.91h-4.03v28.35h4.41v10.33h-26.46V92.58h4.41V64.23h-4.03v4.91H339.7V53.89z"></path><rect width="47.38" height="49.02" x="-23.69" y="-24.51" fill="none" rx="0" ry="0" transform="translate(363.89 78.9)"></rect><path fill="#0056b3" d="M413.16 102.91h-23.94V92.58h3.15V64.23h-3.15V53.89h23.94v10.34h-3.15v28.35h3.15z"></path><rect width="23.94" height="49.02" x="-11.97" y="-24.51" fill="none" rx="0" ry="0" transform="translate(401.69 78.9)"></rect><path fill="#0056b3" d="M439.37 103.79q-11.53 0-17.8-6.05-6.27-6.05-6.27-19.34t6.27-19.34q6.27-6.05 17.8-6.05 11.53 0 17.8 6.05 6.27 6.05 6.27 19.34t-6.27 19.34q-6.27 6.05-17.8 6.05m0-11.21q2.14 0 3.21-1.14 1.07-1.13 1.07-3.53V68.89q0-2.4-1.07-3.53t-3.21-1.13q-2.14 0-3.21 1.13-1.07 1.13-1.07 3.53v19.02q0 2.46 1.07 3.56 1.07 1.11 3.21 1.11"></path><rect width="48.14" height="50.78" x="-24.07" y="-25.39" fill="none" rx="0" ry="0" transform="translate(439.87 78.9)"></rect><path fill="#0056b3" d="M501.87 64.23V53.89h20.66v10.34h-3.15v38.68h-17.7l-18.46-28.42v18.09h3.02v10.33h-20.66V92.58h3.15V64.23h-3.15V53.89h22.74l16.57 25.27V64.23z"></path><rect width="56.95" height="49.02" x="-28.48" y="-24.51" fill="none" rx="0" ry="0" transform="translate(494.56 78.9)"></rect><path fill="#0056b3" d="M544.45 103.79q-6.04 0-11.43-1.04t-8.29-2.36V87.91h13.86q0 1.96.89 2.84.88.88 3.21.88 1.95 0 2.8-.6.85-.6.85-1.79 0-1.01-.82-1.74-.81-.72-2.83-1.48l-5.42-1.89q-6.99-2.64-10.05-6.23-3.05-3.59-3.05-9.71 0-7.43 4.88-11.3 4.88-3.88 16.29-3.88 5.48 0 10.3 1.1 4.82 1.11 7.78 2.93v11.28h-12.6q0-3.15-3.91-3.15-1.89 0-2.68.47-.78.48-.78 1.67 0 1.07.91 1.7.91.63 2.99 1.33l5.48 1.89q6.68 2.26 9.74 5.89 3.05 3.62 3.05 9.48 0 8-5.38 12.09-5.39 4.1-15.79 4.1"></path><rect width="41.45" height="50.78" x="-20.73" y="-25.39" fill="none" rx="0" ry="0" transform="translate(545.4 78.9)"></rect><path fill="#0056b3" d="M86.767 29.48v9.541l31.625 15.45-31.625 15.467v9.541l42.79-21.07v-7.992zM5.393 58.41l42.79 21.07v-9.54L16.56 54.47l31.624-15.449v-9.54L5.393 50.416zm46.844 29.502h9.426l21.05-66.882h-9.349z"></path></svg></svg>